<svg width="283" height="100" viewBox="0 0 283 100" fill="none" xmlns="http://www.w3.org/2000/svg">
<rect width="283" height="100" rx="50" fill="black"/>
<rect x="26" y="28" width="48" height="39" rx="7" fill="white"/>
<path d="M32.8268 66.4062L46.5 65L35.267 74.0368C34.2856 74.8264 32.8268 74.1278 32.8268 72.8681L32.8268 66.4062Z" fill="white"/>
<circle cx="40.8" cy="47.5" r="4.5" fill="black"/>
<circle cx="59" cy="47.5" r="4.5" fill="black"/>
<path d="M115.4 66H110.5V50.25H92.4V66H87.5V30.55H92.4V45.7H110.5V30.55H115.4V66ZM126.964 51.5H140.114C140.047 49.7 139.447 48.2333 138.314 47.1C137.181 45.9333 135.581 45.35 133.514 45.35C131.647 45.35 130.114 45.9667 128.914 47.2C127.714 48.4 127.064 49.8333 126.964 51.5ZM140.814 57.75L144.864 59.15C144.164 61.3833 142.864 63.2167 140.964 64.65C139.064 66.05 136.764 66.75 134.064 66.75C130.697 66.75 127.831 65.6 125.464 63.3C123.131 60.9667 121.964 57.8333 121.964 53.9C121.964 50.2333 123.097 47.2 125.364 44.8C127.631 42.4 130.331 41.2 133.464 41.2C137.097 41.2 139.931 42.35 141.964 44.65C143.997 46.9167 145.014 49.9667 145.014 53.8C145.014 54.4 144.981 54.9 144.914 55.3H126.814C126.847 57.4333 127.547 59.1833 128.914 60.55C130.314 61.9167 132.031 62.6 134.064 62.6C137.497 62.6 139.747 60.9833 140.814 57.75ZM164.364 41.7V46.7C163.664 46.6 162.98 46.55 162.314 46.55C157.914 46.55 155.714 49.0167 155.714 53.95V66H151.014V41.95H155.614V46.15C157.08 43.0833 159.48 41.55 162.814 41.55C163.347 41.55 163.864 41.6 164.364 41.7ZM174.023 66H169.373V41.95H173.873V45.15C174.606 43.8833 175.64 42.9167 176.973 42.25C178.306 41.5833 179.706 41.25 181.173 41.25C182.74 41.25 184.173 41.6333 185.473 42.4C186.773 43.1667 187.74 44.3 188.373 45.8C190.04 42.7667 192.723 41.25 196.423 41.25C198.723 41.25 200.673 42.0333 202.273 43.6C203.906 45.1667 204.723 47.4333 204.723 50.4V66H200.073V50.9C200.073 49.2333 199.64 47.9 198.773 46.9C197.94 45.9 196.673 45.4 194.973 45.4C193.34 45.4 192.006 45.9833 190.973 47.15C189.94 48.2833 189.423 49.7167 189.423 51.45V66H184.723V50.9C184.723 49.2333 184.29 47.9 183.423 46.9C182.59 45.9 181.323 45.4 179.623 45.4C177.956 45.4 176.606 45.9667 175.573 47.1C174.54 48.2333 174.023 49.7 174.023 51.5V66ZM215.294 51.5H228.444C228.377 49.7 227.777 48.2333 226.644 47.1C225.511 45.9333 223.911 45.35 221.844 45.35C219.977 45.35 218.444 45.9667 217.244 47.2C216.044 48.4 215.394 49.8333 215.294 51.5ZM229.144 57.75L233.194 59.15C232.494 61.3833 231.194 63.2167 229.294 64.65C227.394 66.05 225.094 66.75 222.394 66.75C219.027 66.75 216.161 65.6 213.794 63.3C211.461 60.9667 210.294 57.8333 210.294 53.9C210.294 50.2333 211.427 47.2 213.694 44.8C215.961 42.4 218.661 41.2 221.794 41.2C225.427 41.2 228.261 42.35 230.294 44.65C232.327 46.9167 233.344 49.9667 233.344 53.8C233.344 54.4 233.311 54.9 233.244 55.3H215.144C215.177 57.4333 215.877 59.1833 217.244 60.55C218.644 61.9167 220.361 62.6 222.394 62.6C225.827 62.6 228.077 60.9833 229.144 57.75ZM237.094 59.75L241.344 58.25C241.51 59.55 242.077 60.6333 243.044 61.5C244.01 62.3333 245.31 62.75 246.944 62.75C248.21 62.75 249.21 62.45 249.944 61.85C250.677 61.2167 251.044 60.45 251.044 59.55C251.044 57.95 250.01 56.9167 247.944 56.45L243.844 55.55C241.977 55.15 240.51 54.35 239.444 53.15C238.377 51.95 237.844 50.5 237.844 48.8C237.844 46.7333 238.677 44.95 240.344 43.45C242.044 41.95 244.06 41.2 246.394 41.2C247.927 41.2 249.294 41.4333 250.494 41.9C251.694 42.3333 252.627 42.9167 253.294 43.65C253.96 44.3833 254.46 45.0667 254.794 45.7C255.127 46.3333 255.377 46.9833 255.544 47.65L251.394 49.2C251.327 48.8 251.21 48.4167 251.044 48.05C250.877 47.65 250.61 47.2167 250.244 46.75C249.91 46.2833 249.41 45.9167 248.744 45.65C248.077 45.35 247.294 45.2 246.394 45.2C245.227 45.2 244.26 45.5167 243.494 46.15C242.76 46.7833 242.394 47.5333 242.394 48.4C242.394 49.9333 243.31 50.9 245.144 51.3L249.044 52.15C251.177 52.6167 252.81 53.4833 253.944 54.75C255.11 55.9833 255.694 57.5 255.694 59.3C255.694 61.2 254.91 62.9167 253.344 64.45C251.81 65.9833 249.66 66.75 246.894 66.75C243.927 66.75 241.61 66.0167 239.944 64.55C238.277 63.05 237.327 61.45 237.094 59.75Z" fill="white"/>
</svg>
